<?xml version="1.0" encoding="UTF-8" standalone="no"?>
<svg
   xmlns:dc="http://purl.org/dc/elements/1.1/"
   xmlns:cc="http://creativecommons.org/ns#"
   xmlns:rdf="http://www.w3.org/1999/02/22-rdf-syntax-ns#"
   xmlns:svg="http://www.w3.org/2000/svg"
   xmlns="http://www.w3.org/2000/svg"
   viewBox="0 0 607.26014 800"
   height="800"
   width="607.26013"
   xml:space="preserve"
   id="svg833"
   version="1.1"><metadata
     id="metadata839"><rdf:RDF><cc:Work
         rdf:about=""><dc:format>image/svg+xml</dc:format><dc:type
           rdf:resource="http://purl.org/dc/dcmitype/StillImage" /><dc:title></dc:title></cc:Work></rdf:RDF></metadata><defs
     id="defs837" /><g
     transform="matrix(1.3333333,0,0,-1.3333333,-585.00492,140.96026)"
     id="g841"><g
       id="g1486"><path
         id="path949"
         style="fill:#000000;fill-opacity:1;fill-rule:nonzero;stroke:none;stroke-width:9.42595"
         d="M 70.082031 0 C 66.349365 0 63.172131 1.197258 60.523438 3.5820312 C 57.865318 5.9762179 56.537109 8.7668155 56.537109 11.943359 L 56.537109 63.304688 C 56.537109 66.754585 57.865318 69.61082 60.523438 71.873047 C 63.172131 74.125849 66.349365 75.248047 70.082031 75.248047 L 122.23633 75.248047 C 125.95015 75.248047 129.13485 74.125849 131.79297 71.873047 C 134.44165 69.61082 135.77148 66.754585 135.77148 63.304688 L 135.77148 11.943359 C 135.77148 8.7668155 134.44165 5.9762179 131.79297 3.5820312 C 129.13485 1.197258 125.95015 0 122.23633 0 L 70.082031 0 z M 70.478516 112.88867 C 66.755262 112.88867 63.633907 114.01868 61.117188 116.27148 C 58.600454 118.52429 57.337891 121.38018 57.337891 124.83008 L 57.337891 359.55469 C 57.337891 366.45447 57.20534 372.36642 56.941406 377.27734 C 56.66806 382.18826 55.943187 386.16475 54.746094 389.21875 C 53.549 392.27276 51.625595 394.52531 48.986328 395.98633 C 46.318782 397.44735 42.605118 398.18359 37.826172 398.18359 L 13.140625 398.18359 C 9.4173718 398.18359 6.3057958 399.37144 3.7890625 401.76562 C 1.2629159 404.1504 0 406.93903 0 410.125 L 0 468.12305 C 0 471.30902 1.2629159 474.02488 3.7890625 476.28711 C 6.3057958 478.53992 9.4173718 479.66992 13.140625 479.66992 L 46.1875 479.66992 C 66.349606 479.66992 82.355296 477.54051 94.166016 473.29883 C 105.97672 469.05716 114.94048 462.61889 121.03906 453.99414 C 127.14708 445.35997 131.12355 430.98548 132.98047 417.8457 C 134.83738 404.70594 135.77148 389.11515 135.77148 371.06445 L 135.77148 124.83008 C 135.77148 121.38018 134.44165 118.52429 131.79297 116.27148 C 129.13485 114.01868 125.95015 112.88867 122.23633 112.88867 L 70.478516 112.88867 z "
         transform="matrix(0.75000002,0,0,-0.75000002,438.7537,105.7202)" /><path
         d="m 776.86058,-48.464748 c 1.8522,-1.788574 2.7783,-3.881134 2.7783,-6.270612 v -5.973695 -30.158321 -62.706124 c 0,-17.72314 -1.36441,-32.95076 -4.09322,-45.68992 -2.73588,-12.74624 -7.6633,-23.13835 -14.77518,-31.20461 -7.12601,-8.05918 -16.93136,-13.99046 -29.41602,-17.76555 -12.49174,-3.78216 -28.39096,-5.67678 -47.70473,-5.67678 -19.3067,0 -35.26247,1.89462 -47.83904,5.67678 -12.58364,3.77509 -22.48796,9.70637 -29.69881,17.76555 -7.22499,8.06626 -12.25137,18.40888 -15.07916,31.05615 -2.82778,12.64019 -4.24168,27.81833 -4.24168,45.5344 v 63.010104 22.099136 14.03288 c 0,2.389478 0.9261,4.482038 2.7783,6.270612 1.8522,1.788574 4.14271,2.686395 6.87859,2.686395 h 5.56366 27.21036 4.10029 c 2.72881,0 5.0688,-0.897821 7.01997,-2.686395 1.95117,-1.788574 2.92676,-3.881134 2.92676,-6.270612 v -36.132016 c 0,-0.197945 -0.099,-0.402959 -0.28985,-0.593835 v -63.603939 c 0,-7.16844 0.24036,-13.79252 0.72816,-19.85812 0.48072,-6.07974 2.05721,-11.25458 4.67998,-15.53161 2.63691,-4.28409 6.73013,-7.61381 12.29379,-10.00328 5.56367,-2.38948 13.31887,-3.58422 23.2656,-3.58422 9.94673,0 17.65951,1.19474 23.11714,3.58422 5.45762,2.38947 9.50842,5.77575 12.14533,10.15881 2.63691,4.36893 4.19219,9.60033 4.67998,15.673 0.4878,6.0656 0.7423,12.68968 0.7423,19.85811 v 63.900864 36.132016 c 0,2.389478 0.91903,4.482038 2.77123,6.270612 1.8522,1.788574 4.13563,2.686395 6.87858,2.686395 h 4.96983 17.2707 13.46025 c 2.73588,0 5.01932,-0.897821 6.87859,-2.686395"
         style="fill:#000000;fill-opacity:1;fill-rule:nonzero;stroke:none;stroke-width:7.06946"
         id="path953" /><path
         d="m 569.54721,-285.77525 c 2.18447,-1.39975 3.2873,-3.69026 3.2873,-6.87151 v -2.0855 -34.64036 -1.79564 c 0,-2.38948 -0.9473,-4.48204 -2.84192,-6.27061 -1.89461,-1.78857 -4.22754,-2.6864 -7.0129,-2.6864 h -13.43905 c -10.15882,-0.59383 -18.41595,-2.04307 -24.78553,-4.32651 -6.37665,-2.2905 -11.34649,-5.42934 -14.9307,-9.40945 -3.58422,-3.98717 -6.02318,-8.85803 -7.30983,-14.62671 -1.30785,-5.78282 -1.95117,-12.44932 -1.95117,-20.01365 v -58.23115 -37.92059 c 0,-2.58742 -0.9473,-4.72947 -2.83485,-6.41907 -1.88755,-1.6896 -4.22754,-2.53794 -7.01291,-2.53794 h -42.10571 c -2.79243,0 -5.13243,0.84834 -7.01997,2.53794 -1.89462,1.6896 -2.83486,3.83165 -2.83486,6.41907 v 37.92059 0.89782 127.21496 0.29691 25.67629 c 0,2.38947 0.94024,4.48203 2.83486,6.27061 1.88754,1.79564 4.22754,2.68639 7.01997,2.68639 h 42.10571 c 2.78537,0 5.17485,-0.89075 7.16137,-2.68639 1.99359,-1.78858 2.99038,-3.88114 2.99038,-6.27061 v -13.13506 c 2.38948,4.37599 5.96662,7.95314 10.75265,10.74558 4.77189,2.78537 10.0457,4.9769 15.82145,6.5746 5.76868,1.58356 11.74945,2.68639 17.92109,3.28023 6.16457,0.6009 11.83428,0.99679 17.01619,1.19474 h 0.29692 l 0.30399,0.29691 c 2.18446,0 4.36892,-0.69987 6.56752,-2.08549"
         style="fill:#000000;fill-opacity:1;fill-rule:nonzero;stroke:none;stroke-width:7.06946"
         id="path955" /><path
         d="m 795.69716,-485.00751 c 0,-2.82071 -0.30399,-4.93448 -0.91196,-6.34131 -0.60798,-1.41389 -2.02894,-2.21981 -4.25582,-2.41775 v -0.29692 h -16.71927 c -10.74559,0 -18.91081,1.90169 -24.48155,5.73333 -5.5778,3.82458 -10.38504,9.66396 -14.44291,17.51813 -2.02893,-5.63436 -5.0688,-9.96794 -9.1196,-12.9866 -4.05787,-3.01866 -9.07719,-5.23847 -15.05089,-6.6453 -5.98076,-1.41389 -12.93004,-2.26222 -20.8337,-2.56621 -7.89659,-0.30399 -16.71927,-0.45245 -26.44685,-0.45245 -15.81439,0 -28.68788,1.60477 -38.62047,4.82845 -9.93259,3.22367 -17.68072,7.65622 -23.25853,13.29058 -5.5778,5.63436 -9.42359,12.27966 -11.5515,19.93588 -2.13497,7.65623 -3.19539,15.90629 -3.19539,24.7714 0,14.29445 2.58035,26.02268 7.7552,35.19177 5.16777,9.16203 13.07143,16.35167 23.71804,21.59014 10.63954,5.23847 24.17049,8.8651 40.59285,10.8799 16.41528,2.00773 35.96941,3.01866 58.67652,3.01866 h 8.21472 c 0,4.42548 -0.45952,8.40559 -1.37148,11.93325 -0.91196,3.52059 -2.78537,6.39079 -5.62729,8.60353 -2.83485,2.21981 -6.94221,3.93062 -12.30793,5.1395 -5.37279,1.20888 -12.42104,1.80978 -21.13062,1.80978 -8.5187,0 -16.47891,-0.8554 -23.87357,-2.56621 -7.40173,-1.71081 -14.13892,-3.77509 -20.21866,-6.19285 -3.24488,-1.20888 -6.38372,-2.6157 -9.43066,-4.22754 -3.03987,-1.61183 -5.98077,-3.22367 -8.81562,-4.83551 l -6.07974,-3.61956 c -0.20501,-0.41003 -0.71401,-0.80592 -1.51993,-1.20888 -0.20501,-0.20501 -0.36054,-0.30399 -0.45952,-0.30399 -0.10604,0 -0.2545,-0.10604 -0.45244,-0.30398 l -0.31106,-0.30399 c -1.6189,-0.80592 -3.0328,-1.00386 -4.24874,-0.6009 -1.22302,0.40295 -2.53794,1.71081 -3.95183,3.93062 l -15.81439,29.29584 c -1.62597,2.41776 -2.43189,4.48204 -2.43189,6.19285 0,1.71081 1.1099,3.37213 3.34385,4.98397 l 2.73589,1.81685 c 10.33555,7.04119 20.62161,12.42812 30.86526,16.15372 10.22951,3.72561 21.43461,6.49684 33.60115,8.30662 10.32848,1.81685 21.37805,2.72174 33.14164,2.72174 18.43715,0 33.38906,-1.51286 44.84866,-4.53152 11.45252,-3.01866 20.4166,-7.7552 26.90637,-14.19548 6.48269,-6.44735 10.89404,-14.75397 13.22696,-24.91985 2.33292,-10.17296 3.49231,-22.41019 3.49231,-36.69758 v -61.3205 -10.27193 c 0,-2.41775 0.35348,-4.22754 1.07456,-5.43641 0.69988,-1.20888 1.76737,-2.0148 3.18833,-2.41776 1.41389,-0.40296 3.54887,-0.6009 6.38372,-0.6009 v -0.30399 c 1.61891,-0.20502 2.89141,-0.80592 3.80337,-1.81685 0.91196,-1.00387 1.36441,-2.82072 1.36441,-5.43642 z m -69.93111,86.38882 h -4.86379 c -18.04834,0 -32.33572,-0.40296 -42.87628,-1.20888 -10.54057,-0.80592 -18.64924,-2.26223 -24.32602,-4.38307 -5.67678,-2.1067 -9.32462,-4.93448 -10.94353,-8.45507 -1.62597,-3.5206 -2.43896,-8.00263 -2.43896,-13.43905 0,-7.65623 2.48845,-13.94805 7.45828,-18.87546 4.96276,-4.94155 13.93391,-7.40173 26.90637,-7.40173 17.83625,0 30.80871,3.97304 38.92445,11.92618 8.10161,7.95315 12.15948,19.3774 12.15948,34.28689 z"
         style="fill:#000000;fill-opacity:1;fill-rule:nonzero;stroke:none;stroke-width:7.06946"
         id="path957" /></g><g
       id="g1479"><path
         d="m 894.19667,-494.27982 h -51.55051 v 6.51805 h 45.43542 v 14.48532 h 6.11509 z"
         style="fill:#000000;fill-opacity:1;fill-rule:nonzero;stroke:none;stroke-width:7.06946"
         id="path963" /><path
         d="m 894.19667,-467.26175 h -51.55051 v 21.59014 h 5.8323 v -15.29125 h 16.23148 v 14.27324 h 5.4647 v -14.27324 h 18.1261 v 16.01233 h 5.89593 z"
         style="fill:#000000;fill-opacity:1;fill-rule:nonzero;stroke:none;stroke-width:7.06946"
         id="path965" /><path
         d="m 868.49423,-391.63619 c 8.34903,0 14.72568,-1.6896 19.11582,-5.07587 4.39013,-3.3792 6.58874,-8.10867 6.58874,-14.19548 v -11.7353 h -51.55051 v 11.81307 c 0,6.07973 2.21274,10.80213 6.63115,14.16013 4.41841,3.35092 10.82335,5.03345 19.2148,5.03345 m 0,-6.51804 c -3.39335,0 -6.35545,-0.3252 -8.87925,-0.97559 -2.52379,-0.65039 -4.60929,-1.54114 -6.26354,-2.67225 -1.64718,-1.13112 -2.88434,-2.47431 -3.71147,-4.03666 -0.82712,-1.56236 -1.23715,-3.23782 -1.23715,-5.01932 v -5.25968 h 40.04143 v 5.25968 c 0,1.7815 -0.41003,3.45696 -1.23716,5.01932 -0.82713,1.56235 -2.06428,2.90554 -3.71147,4.03666 -1.64718,1.13111 -3.7256,2.02186 -6.22112,2.67225 -2.50259,0.65039 -5.42935,0.97559 -8.78027,0.97559"
         style="fill:#000000;fill-opacity:1;fill-rule:nonzero;stroke:none;stroke-width:7.06946"
         id="path971" /><path
         d="m 838.57344,-370.34156 v -4.85672 l -10.48401,6.52512 v 6.07973 z m 55.62252,-12.2443 h -51.54344 v 21.59013 h 5.82523 v -15.28417 h 16.23149 v 14.26617 h 5.46469 v -14.26617 h 18.1261 v 16.00526 h 5.89593 z"
         style="fill:#000000;fill-opacity:1;fill-rule:nonzero;stroke:none;stroke-width:7.06946"
         id="path977" /><path
         d="m 857.13714,-325.06661 c 2.47431,0 4.66584,-0.36761 6.55339,-1.08869 1.89461,-0.72109 3.45696,-1.70374 4.69412,-2.93383 1.24422,-1.23009 2.17032,-2.62984 2.80658,-4.19926 0.62918,-1.56942 0.9473,-3.22367 0.9473,-4.96276 v -6.95635 h 22.05672 v -6.51804 h -51.54344 v 13.00073 c 0,1.54822 0.22622,3.13885 0.69281,4.75775 0.45951,1.61891 1.24422,3.08936 2.3612,4.39721 1.12404,1.30785 2.60863,2.38241 4.48204,3.23074 1.86633,0.84127 4.17805,1.2725 6.94928,1.2725 m 0.0778,-6.52511 c -3.11056,0 -5.37986,-0.71401 -6.80789,-2.16325 -1.4351,-1.44217 -2.14912,-3.30851 -2.14912,-5.61316 v -5.83937 h 18.41595 v 5.83937 c 0,2.30465 -0.78471,4.17099 -2.3612,5.61316 -1.57649,1.44924 -3.94476,2.16325 -7.09774,2.16325"
         style="fill:#000000;fill-opacity:1;fill-rule:nonzero;stroke:none;stroke-width:7.06946"
         id="path983" /><path
         d="m 894.19667,-298.12065 -12.08878,-2.89848 V -315.865 l 12.08878,-2.97624 v -6.58874 l -51.55051,12.8947 v 8.61767 l 51.55051,12.60485 z m -45.42836,-10.06691 v -0.28985 l 28.17887,-6.51804 v 13.10678 z"
         style="fill:#000000;fill-opacity:1;fill-rule:nonzero;stroke:none;stroke-width:7.06946"
         id="path989" /><path
         d="m 894.19667,-264.07483 -23.00403,-8.69544 v -5.93834 h 23.00403 v -6.37666 h -51.55051 v 13.29059 c 0,1.88754 0.26157,3.66905 0.77057,5.34451 0.509,1.66839 1.32199,3.13177 2.43896,4.39014 1.11698,1.25836 2.57328,2.25515 4.36893,2.97624 1.79564,0.72815 3.95183,1.09577 6.47562,1.09577 2.0855,0 3.90942,-0.27571 5.4647,-0.80592 1.54821,-0.54435 2.8702,-1.23716 3.96597,-2.09256 1.08869,-0.85541 1.95117,-1.79565 2.58742,-2.81365 0.62918,-1.02507 1.03921,-2.0148 1.23715,-2.98331 l 24.24119,9.63567 z m -37.24193,-0.43831 c -1.75322,0 -3.18832,-0.24036 -4.31237,-0.72108 -1.11697,-0.48073 -2.02186,-1.10991 -2.70053,-1.88755 -0.68574,-0.77057 -1.15939,-1.66132 -1.42803,-2.67932 -0.26864,-1.01094 -0.40296,-2.02187 -0.40296,-3.03987 v -5.86765 h 17.98471 v 6.01611 c 0,2.46017 -0.79178,4.43962 -2.37534,5.93834 -1.58356,1.49873 -3.83872,2.24102 -6.76548,2.24102"
         style="fill:#000000;fill-opacity:1;fill-rule:nonzero;stroke:none;stroke-width:7.06946"
         id="path995" /><path
         d="m 848.25931,-239.23204 h 45.93736 v -6.51804 h -45.93736 v -9.77706 h -5.60609 v 26.07924 h 5.60609 z"
         style="fill:#000000;fill-opacity:1;fill-rule:nonzero;stroke:none;stroke-width:7.06946"
         id="path1001" /><path
         d="m 894.19667,-223.87293 h -51.55051 v 21.58307 h 5.8323 v -15.28418 h 16.23148 v 14.27325 h 5.4647 v -14.27325 h 18.1261 v 16.01233 h 5.89593 z"
         style="fill:#000000;fill-opacity:1;fill-rule:nonzero;stroke:none;stroke-width:7.06946"
         id="path1003" /><path
         d="m 894.19667,-157.95727 h -42.6642 v -0.21915 l 42.6642,-11.44546 v -5.86765 l -42.6642,-11.297 v -0.21916 h 42.6642 v -6.00904 h -51.55051 v 9.57912 l 40.92511,10.95767 v 0.28985 l -40.92511,10.73851 v 10.01035 h 51.55051 z"
         style="fill:#000000;fill-opacity:1;fill-rule:nonzero;stroke:none;stroke-width:7.06946"
         id="path1005" /><path
         d="m 894.19667,-140.2108 h -51.55051 v 21.59013 h 5.8323 v -15.29124 h 16.23148 v 14.27324 h 5.4647 v -14.27324 h 18.1261 v 16.01233 h 5.89593 z"
         style="fill:#000000;fill-opacity:1;fill-rule:nonzero;stroke:none;stroke-width:7.06946"
         id="path1007" /><path
         d="m 894.19667,-85.727878 -39.97074,-16.372872 v -0.21208 h 39.97074 v -6.01612 h -51.55051 v 7.8259 l 40.04849,16.153717 v 0.212084 h -40.04849 v 6.016111 h 51.55051 z"
         style="fill:#000000;fill-opacity:1;fill-rule:nonzero;stroke:none;stroke-width:7.06946"
         id="path1009" /><path
         d="m 848.25931,-55.337678 h 45.93736 v -6.518043 h -45.93736 v -9.777065 h -5.60609 v 26.072173 h 5.60609 z"
         style="fill:#000000;fill-opacity:1;fill-rule:nonzero;stroke:none;stroke-width:7.06946"
         id="path1011" /></g></g></svg>
