<?xml version="1.0" encoding="utf-8"?>
<!-- Generator: Adobe Illustrator 21.1.0, SVG Export Plug-In . SVG Version: 6.00 Build 0)  -->
<svg version="1.1" xmlns="http://www.w3.org/2000/svg" xmlns:xlink="http://www.w3.org/1999/xlink" x="0px" y="0px" width="50px"
	 height="50px" viewBox="0 0 50 50" style="enable-background:new 0 0 50 50;" xml:space="preserve">
<style type="text/css">
	.st0{fill:url(#SVGID_1_);}
	.st1{fill:#FFFFFF;}
</style>
<g id="fond">
	<linearGradient id="SVGID_1_" gradientUnits="userSpaceOnUse" x1="-1.9807" y1="2.3657" x2="51.9807" y2="47.6447">
		<stop  offset="0" style="stop-color:#AF286E"/>
		<stop  offset="0.3181" style="stop-color:#8D3693"/>
		<stop  offset="0.7731" style="stop-color:#6248C3"/>
		<stop  offset="1" style="stop-color:#514FD5"/>
	</linearGradient>
	<rect y="0" class="st0" width="50" height="50"/>
</g>
<g id="k">
	<g>
		<g>
			<path class="st1" d="M21.8,26.2c-0.1,0.6-0.3,2.4-0.3,8.1c0,2.3,0,4.1,0,7.2c0,2,0,2-2,2c-4.1,0-4.1,0-4.1-4.1
				c0-10,0-20.1,0-30.1c0-1.2,0.2-2,1.2-2.2c1.1-0.3,2.5-0.5,3.7-0.6c1.2-0.1,1.2,0.3,1.2,2.3c0,3.7,0,7.5,0,11.5l0,0v0.6
				c1.2-1.7,3.2-3,5.6-3.5c4.5-0.9,8.8,1.7,9.6,5.7c0.6,3.4-1.4,6.7-4.8,8.2c-0.1-0.8-0.5-1.4-1.2-1.9l-2.4-1.5
				c1.8-1.4,2.6-3.5,1.7-4.9c-1-1.6-3.5-1.8-5.7-0.5C22.9,23.6,22,24.9,21.8,26.2z M25.1,35.7c0,0-0.1,0-0.1,0.1
				c-0.1,0.1-0.3,0.1-0.4,0.1c-0.1,0-0.2,0-0.3,0c-0.1,0-0.2-0.1-0.2-0.1c-0.3-0.2-0.5-0.5-0.5-0.9v-5.9c0-0.4,0.2-0.7,0.5-0.9l0,0
				c0.1,0,0.2-0.1,0.2-0.1c0,0,0.1,0,0.1,0c0.1,0,0.1,0,0.2,0l0,0c0.1,0,0.1,0,0.2,0c0,0,0.1,0,0.1,0c0.1,0,0.2,0.1,0.2,0.1
				c0,0,0,0,0,0l1.5,1l1.4,0.9l1.8,1.1c0.1,0.1,0.2,0.2,0.3,0.3c0,0.1,0.1,0.1,0.1,0.2c0.1,0.1,0.1,0.3,0.1,0.4c0,0,0,0.1,0,0.1
				c0,0.1-0.1,0.2-0.1,0.4c-0.1,0.1-0.2,0.3-0.4,0.4l-3.4,2.1L25.1,35.7z M37.4,43.2c-0.3,0.3-0.9,0.3-1.4,0.3
				c-5.1,0.1-5.1,0.1-7.5-4.3c-0.5-0.9-1-1.8-1.5-2.7l3.7-2.3c0,0,0,0,0.1-0.1l0,0c0.3-0.2,0.6-0.5,0.8-0.8c1.8,2.8,3.6,5.7,5.4,8.5
				C37.1,42.3,37.7,42.8,37.4,43.2z"/>
		</g>
	</g>
</g>
</svg>
